Patient4_TMGait_0pt3_02_left_16_EMG.mot
version=1
nRows=16
nColumns=33
inDegrees=no
endheader
time	1LAddLong	2LGlutMax	3LGlutMed	4LIliopsoas	5LSemiMemb	6LBicFemLong	7LRecFem	8LVastMed	9LVastLat	10LGasMed	11LTibAnt	12lTibPost	13LPeroneusLong	14LSol	15LExtDigLong	16LFlexDigLong	17RAddLong	18RGlutMax	19RGlutMed	20RIliopsoas	21RSemiMemb	22RBicFemLong	23RRecFem	24RVastMed	25RVastLat	26RGasMed	27RTibAnt	28RTibPost	29RPeroneusLong	30RSol	31RExtDigLong	32RFlexDigLong
32.975	0.007629	-0.12131	0.1207	0.010529	0.00473	-0.018005	-0.064087	0.003815	-0.03418	0.003815	-0.002289	0.001221	-0.009766	0.009918	-0.032654	0.043793	-0.072937	0.13412	-0.37354	-0.016785	0.24262	0.10513	-0.44784	-0.078278	0.031586	0.001831	0.22079	0.000763	-0.23285	-0.078888	-0.000763	-0.007782
32.976	-0.002899	-0.13367	0.10193	0	0.00061	-0.015411	-0.074921	0.002289	-0.02243	-0.000153	0.004425	0.003967	0.00351	0.055542	-0.37109	0.029755	-0.10681	0.19928	-0.65079	-0.013123	0.13687	-0.003052	-0.33249	-0.067749	-0.013428	-0.00946	-0.12741	-0.006104	-0.27191	0.16022	-0.003967	-0.009918
32.977	0.009308	-0.12711	0.098419	-0.004883	0.006714	0.010071	-0.049591	0.003052	-0.021973	-0.003052	0.048981	-0.00061	0.013123	0.09201	-0.2803	0.042114	-0.083466	0.25925	-0.40009	-0.11322	0.050201	0.036011	-0.32547	-0.086517	-0.000305	-0.013428	0.035553	-0.001221	-0.23636	0.32288	-0.003204	-0.011597
32.978	0.005035	-0.12497	0.066071	0.001678	-0.003967	-0.001221	-0.017395	0.00351	-0.014496	0.007477	0.072632	0.001068	0.041656	0.045776	-0.18646	0.028687	-0.035858	0.16129	0.093231	-0.12314	-0.079956	0.032806	-0.14786	-0.17258	0.004272	0.003815	-0.20325	-0.002136	-0.058746	0.30273	-0.001526	0.000916
32.979	-0.001984	-0.076752	0.040894	0.02533	0.004578	0.038147	-0.016785	0	-0.019226	-0.001984	0.055542	0.003052	0.078278	0.008392	-0.14618	0.00824	0.033264	0.1799	0.91873	-0.14572	-0.059204	-0.050201	-0.025635	-0.23575	0.020905	0.007019	-0.20371	0.000305	0.15243	0.12863	-0.003052	0.001831
32.98	0.000305	-0.1062	0.033264	0.031433	0.000153	0.039368	-0.011292	0.002594	-0.027008	-0.003052	0.10864	-0.002289	0.065155	0.032349	-0.093231	0.011444	0.030365	0.09903	0.5072	-0.12054	-0.14755	-0.19959	0.15625	-0.30777	0.090332	0	-0.3067	-0.000153	0.079193	0.16068	-0.003357	0.002594
32.981	0.001068	-0.081177	0.027924	0.019226	-0.021515	0.054626	-0.002747	0.011902	-0.030518	-0.023193	0.066681	-0.003052	0.055084	-0.014954	-0.035706	0.013123	0.02533	0.1149	-0.003204	-0.085297	-0.14603	-0.24002	0.12482	-0.31693	0.45441	-0.011749	-0.41306	-0.001678	-0.00061	0.28961	-0.006561	-0.00061
32.982	-0.001373	-0.086975	0.024261	0.017853	-0.00061	0.061188	0.006714	0.010376	-0.028839	-0.014038	-0.1445	0.005341	0.047302	-0.004578	0.01236	0.012665	-0.007324	0.083923	0.036011	-0.096588	0.11154	-0.25879	-0.06546	-0.18631	0.95352	-0.014648	-0.35095	-0.00061	-0.026093	0.34012	-0.007172	-0.007935
32.983	0.001984	-0.097656	0.031128	0.003357	-0.00946	0.049286	0.09552	0.017395	-0.008545	-0.004883	-0.13397	-0.007935	0.016785	-0.057678	0.078125	-0.000458	-0.053101	0.096893	0.036774	-0.06485	0.1445	-0.18021	-0.078888	-0.1413	0.952	-0.021057	-0.26291	0.00061	-0.092316	0.28259	-0.003052	-0.006409
32.984	0.005646	-0.08728	0.031586	0.008392	-0.004578	0.05127	0.10681	0.011902	-0.012665	-0.000153	-0.10651	-0.005493	-0.014191	-0.059052	0.14206	0.029297	-0.10437	0.12253	0.026398	0.094299	0.081024	-0.029449	0.043335	-0.1445	0.69672	-0.009308	-0.10376	-0.000305	-0.094299	0.13306	-0.003052	-0.00946
32.985	0.00061	-0.07843	0.019073	0.011902	0.001373	0.050201	0.072021	0.007629	0.002594	0.000916	-0.073395	-0.001068	-0.030823	-0.004272	0.2182	0.001984	-0.072479	0.12192	-0.26642	0.29404	-0.000153	0.005646	-0.15274	0.22949	0.44388	-0.000305	0.46127	0	0.008087	-0.062256	-0.003662	-0.00473
32.986	0.005646	-0.063477	0.05188	0.010071	-0.006561	0.063019	0.057068	0.01358	0.005188	0.006714	-0.047302	-0.005493	-0.018158	0.016632	0.25543	-0.002289	-0.059509	0.12543	-0.10742	0.19501	-0.000916	0.012512	-0.24078	0.17319	0.069122	-0.011444	0.28534	-0.005341	-0.084229	-0.1062	-0.004578	-0.002594
32.987	0.005798	-0.12116	0.044708	0.007324	-0.000458	0.052795	0.002747	0.001526	-0.005341	-0.002899	-0.003052	-0.000916	-0.005188	0.009766	0.17258	0.011749	-0.04837	0.15366	0.13428	-0.005188	0.097046	0.031281	-0.34134	0.093536	-0.23865	-0.01709	0.27741	0.007782	-0.12802	-0.028076	-0.003662	-0.012665
32.988	0.002136	-0.12344	-0.022278	-0.007629	0.004425	0.048828	-0.042267	-0.005951	-0.003357	-0.005493	0.012665	-0.009003	-0.011139	0.004578	0.087128	0.015259	-0.020447	0.098572	0.85693	-0.019073	0.1532	0.009918	-0.31982	0.34836	-0.56839	-0.009918	0.35919	0.001221	-0.13412	-0.002441	-0.003204	-0.015411
32.989	0.010529	-0.12512	-0.074768	-0.007629	0.000305	0.040588	-0.070496	-0.003815	-0.022888	-0.00824	0.019989	-0.001373	0.007019	-0.027466	-0.09491	-0.00473	-0.029144	0.11749	0.24277	0.15564	0.097198	0.047913	-0.058899	0.46341	-0.49271	-0.01709	0.41306	0.001373	-0.16617	0.037842	-0.00351	-0.016785
32.99	0.008545	-0.11826	-0.056763	-0.010376	-0.001068	0.045013	-0.079346	-0.002136	0.002747	-0.016632	0.031586	-0.004425	0.015106	-0.010681	-0.075989	0.005341	-0.014954	0.10925	-0.030518	0.20813	-0.19089	0.046692	0.030823	0.44495	-0.044403	-0.013428	0.10086	0	-0.088348	0.039825	-0.000763	-0.022736
